<svg xmlns="http://www.w3.org/2000/svg" width="7607.996" height="7582.996" viewBox="0 0 7607.996 7582.996">
  <path id="排除_1" data-name="排除 1" d="M15124,24343c-32.6,0-65.628-.416-98.17-1.234-32.416-.82-65.239-2.064-97.558-3.7-32.231-1.629-64.839-3.687-96.915-6.123-31.916-2.42-64.3-5.285-96.243-8.518-31.693-3.207-63.838-6.869-95.541-10.885-31.518-3.994-63.415-8.443-94.81-13.225-31.215-4.752-62.856-9.979-94.047-15.531-31.006-5.518-62.381-11.51-93.255-17.807-30.734-6.27-61.834-13.018-92.434-20.055-30.5-7.02-61.312-14.514-91.582-22.275-30.226-7.752-60.741-15.982-90.7-24.463-29.915-8.469-60.124-17.426-89.79-26.623-29.554-9.162-59.448-18.834-88.849-28.75-29.3-9.883-58.862-20.262-87.877-30.85-28.927-10.559-58.156-21.635-86.876-32.92-28.543-11.219-57.427-22.98-85.849-34.959-28.343-11.951-56.869-24.391-84.785-36.973-27.966-12.6-56.125-25.705-83.694-38.949-27.475-13.191-55.256-26.951-82.575-40.9-27.212-13.893-54.607-28.3-81.425-42.822s-53.8-29.555-80.244-44.709-53.036-30.826-79.036-46.574c-51.957-31.465-103.878-64.641-154.32-98.6-50.28-33.859-100.453-69.42-149.122-105.7-48.562-36.2-96.9-74.062-143.684-112.543-46.735-38.439-93.168-78.529-138.009-119.15-44.8-40.588-89.245-82.82-132.092-125.525s-85.213-87-125.94-131.658c-40.771-44.711-80.992-90.992-119.546-137.555-38.6-46.619-76.589-94.8-112.913-143.211-36.365-48.467-72.043-98.475-106.043-148.633-34.062-50.254-67.347-102-98.932-153.812-15.817-25.947-31.538-52.451-46.727-78.777-15.2-26.342-30.29-53.252-44.856-79.98-14.595-26.775-29.049-54.08-42.963-81.156-13.941-27.129-27.748-54.82-41.034-82.3-13.3-27.518-26.451-55.584-39.077-83.42-12.664-27.92-25.144-56.354-37.09-84.508-11.979-28.223-23.78-57.012-35.076-85.564-11.311-28.588-22.422-57.721-33.028-86.59-10.636-28.955-21.049-58.424-30.951-87.588-9.936-29.266-19.641-59.061-28.846-88.559-9.238-29.6-18.224-59.713-26.71-89.492-8.535-29.959-16.793-60.375-24.544-90.4-7.8-30.209-15.317-60.922-22.347-91.281-7.065-30.5-13.837-61.5-20.123-92.129-6.312-30.736-12.322-62.008-17.867-92.949s-10.791-62.492-15.582-93.736c-4.793-31.264-9.256-63.057-13.268-94.5-4.023-31.559-7.7-63.6-10.921-95.227-3.238-31.795-6.114-64.068-8.546-95.928-2.447-32.059-4.513-64.559-6.142-96.6-1.637-32.174-2.884-64.889-3.707-97.236-.824-32.432-1.242-65.354-1.242-97.848s.418-65.412,1.242-97.848c.823-32.35,2.07-65.064,3.707-97.236,1.629-32.037,3.694-64.537,6.142-96.6,2.432-31.85,5.307-64.125,8.546-95.926,3.223-31.631,6.9-63.67,10.921-95.227,4.012-31.443,8.475-63.236,13.268-94.5,4.79-31.242,10.033-62.779,15.582-93.738,5.545-30.941,11.556-62.213,17.867-92.949,6.285-30.623,13.057-61.621,20.123-92.131,7.029-30.359,14.549-61.072,22.347-91.281,7.758-30.055,16.016-60.471,24.544-90.4,8.484-29.773,17.47-59.885,26.71-89.494,9.205-29.5,18.91-59.293,28.846-88.559,9.9-29.164,20.315-58.633,30.951-87.588,10.614-28.889,21.727-58.023,33.028-86.592,11.283-28.52,23.084-57.307,35.076-85.564,11.964-28.2,24.442-56.627,37.09-84.506,12.626-27.836,25.773-55.9,39.077-83.42,13.289-27.488,27.1-55.18,41.034-82.3,13.933-27.109,28.387-54.414,42.963-81.156s29.658-53.639,44.856-79.98,30.924-52.855,46.727-78.775c31.583-51.807,64.867-103.557,98.932-153.812,33.993-50.15,69.671-100.156,106.043-148.635,36.324-48.41,74.313-96.592,112.913-143.211,38.557-46.566,78.779-92.846,119.546-137.553,40.7-44.635,83.074-88.932,125.94-131.66,42.81-42.67,87.253-84.9,132.092-125.527,44.864-40.641,91.3-80.73,138.009-119.15,46.779-38.48,95.122-76.346,143.684-112.543,48.643-36.256,98.814-71.818,149.122-105.7,50.429-33.953,102.349-67.129,154.32-98.6,26.01-15.754,52.6-31.424,79.036-46.572s53.43-30.193,80.244-44.711c26.86-14.545,54.256-28.951,81.425-42.82,27.242-13.908,55.023-27.668,82.575-40.9,27.569-13.244,55.729-26.348,83.694-38.949s56.5-25.045,84.785-36.969c28.4-11.973,57.282-23.736,85.849-34.963,28.685-11.271,57.913-22.348,86.876-32.92,28.99-10.58,58.557-20.959,87.877-30.848,29.4-9.918,59.295-19.59,88.849-28.75,29.666-9.2,59.875-18.156,89.79-26.623,29.96-8.482,60.476-16.713,90.7-24.463,30.333-7.779,61.146-15.273,91.582-22.277,30.612-7.041,61.712-13.787,92.434-20.053,30.861-6.3,62.236-12.289,93.255-17.809,31.19-5.553,62.832-10.779,94.047-15.531,31.395-4.781,63.292-9.23,94.81-13.225,31.7-4.016,63.848-7.678,95.541-10.885,31.907-3.229,64.288-6.094,96.243-8.518,32.05-2.434,64.656-4.492,96.915-6.121s65.089-2.873,97.558-3.7c32.542-.818,65.571-1.234,98.17-1.234s65.628.416,98.17,1.234c32.47.824,65.293,2.066,97.558,3.7s64.864,3.688,96.914,6.121c31.955,2.424,64.337,5.289,96.243,8.518,31.688,3.207,63.833,6.869,95.541,10.885,31.518,3.994,63.415,8.443,94.81,13.225,31.215,4.752,62.856,9.979,94.047,15.531,31.011,5.52,62.386,11.512,93.255,17.809,30.741,6.27,61.84,13.016,92.433,20.053,30.429,7,61.24,14.5,91.582,22.277,30.226,7.75,60.741,15.98,90.7,24.463,29.915,8.467,60.124,17.424,89.79,26.623,29.558,9.16,59.45,18.834,88.848,28.75,29.3,9.883,58.87,20.262,87.878,30.848,28.93,10.561,58.16,21.637,86.877,32.92,28.566,11.227,57.449,22.99,85.846,34.963,28.271,11.916,56.8,24.355,84.785,36.969s56.135,25.711,83.7,38.949c27.594,13.252,55.377,27.012,82.576,40.9s54.6,28.295,81.424,42.82c26.8,14.51,53.8,29.551,80.244,44.711s53.045,30.83,79.037,46.572c51.979,31.479,103.9,64.654,154.316,98.6,50.287,33.863,100.461,69.424,149.123,105.7,48.553,36.189,96.9,74.055,143.686,112.543,46.693,38.406,93.125,78.494,138.008,119.15,44.844,40.627,89.287,82.859,132.094,125.527,42.859,42.719,85.23,87.018,125.939,131.66,40.77,44.711,80.99,90.99,119.545,137.553,38.615,46.641,76.605,94.822,112.914,143.211,36.381,48.492,72.059,98.5,106.043,148.635,34.09,50.3,67.377,102.049,98.932,153.813,15.832,25.973,31.553,52.475,46.723,78.775s30.275,53.219,44.861,79.98c14.547,26.689,29,53.994,42.961,81.156,13.938,27.125,27.744,54.816,41.035,82.3,13.338,27.6,26.486,55.662,39.076,83.42,12.635,27.855,25.115,56.287,37.092,84.506,12,28.279,23.8,57.068,35.074,85.564,11.332,28.652,22.443,57.785,33.025,86.592,10.627,28.932,21.041,58.4,30.953,87.588,9.938,29.266,19.643,59.061,28.848,88.559,9.23,29.586,18.219,59.7,26.709,89.494,8.5,29.846,16.762,60.262,24.545,90.4,7.785,30.16,15.3,60.871,22.348,91.281,7.078,30.574,13.848,61.572,20.121,92.131,6.318,30.773,12.328,62.047,17.867,92.949,5.561,31.035,10.8,62.574,15.582,93.738,4.791,31.248,9.256,63.041,13.268,94.5,4.023,31.543,7.7,63.582,10.918,95.227,3.238,31.75,6.113,64.023,8.547,95.926,2.443,31.969,4.51,64.469,6.145,96.6,1.637,32.172,2.883,64.887,3.707,97.236.822,32.461,1.238,65.383,1.238,97.848s-.416,65.389-1.238,97.848c-.824,32.348-2.07,65.063-3.707,97.236-1.635,32.129-3.7,64.629-6.145,96.6-2.434,31.91-5.311,64.186-8.547,95.928-3.223,31.643-6.895,63.682-10.918,95.227-4.012,31.455-8.477,63.248-13.268,94.5-4.779,31.168-10.021,62.705-15.582,93.736-5.539,30.9-11.549,62.176-17.867,92.949-6.275,30.566-13.045,61.561-20.121,92.129-7.045,30.41-14.562,61.121-22.348,91.281-7.775,30.115-16.033,60.531-24.545,90.4-8.494,29.8-17.48,59.912-26.709,89.492-9.205,29.5-18.91,59.293-28.848,88.559-9.912,29.189-20.326,58.658-30.953,87.588-10.572,28.785-21.684,57.92-33.025,86.59-11.287,28.531-23.088,57.318-35.074,85.564-11.959,28.178-24.439,56.611-37.092,84.508-12.59,27.758-25.738,55.824-39.076,83.42-13.289,27.482-27.094,55.174-41.035,82.3s-28.4,54.434-42.961,81.156c-14.586,26.762-29.68,53.67-44.861,79.98-15.154,26.275-30.875,52.779-46.723,78.777-31.557,51.764-64.844,103.514-98.932,153.813-33.992,50.145-69.67,100.152-106.043,148.633-36.309,48.389-74.3,96.57-112.914,143.211-38.553,46.559-78.773,92.84-119.545,137.555-40.736,44.668-83.107,88.965-125.939,131.658s-87.287,84.934-132.094,125.525c-44.859,40.637-91.291,80.725-138.008,119.15-46.789,38.488-95.133,76.354-143.686,112.543-48.689,36.293-98.863,71.855-149.123,105.7-50.432,33.959-102.352,67.135-154.316,98.6-25.982,15.738-52.574,31.408-79.037,46.574s-53.455,30.207-80.244,44.709-54.172,28.908-81.424,42.822c-27.277,13.924-55.059,27.684-82.576,40.9-27.561,13.238-55.719,26.344-83.7,38.949-27.93,12.59-56.457,25.027-84.785,36.973-28.422,11.979-57.3,23.74-85.846,34.959-28.752,11.3-57.98,22.375-86.877,32.92-29.033,10.594-58.6,20.973-87.878,30.85-29.4,9.914-59.29,19.588-88.848,28.75-29.666,9.2-59.875,18.154-89.79,26.623-29.96,8.48-60.476,16.711-90.7,24.463-30.277,7.764-61.091,15.258-91.582,22.275-30.58,7.033-61.679,13.779-92.433,20.055-30.881,6.3-62.257,12.291-93.255,17.807-31.19,5.553-62.832,10.779-94.047,15.531-31.395,4.781-63.292,9.23-94.81,13.225-31.708,4.016-63.853,7.678-95.541,10.885-31.945,3.232-64.327,6.1-96.243,8.518-32.076,2.436-64.684,4.494-96.914,6.123-32.317,1.631-65.141,2.875-97.558,3.7C15189.631,24342.582,15156.6,24343,15124,24343Zm2.811-4315.969v1478.48l252.846,0v-545.293l17.259,0a333.2,333.2,0,0,0,24.721,42.8,319.529,319.529,0,0,0,30.5,38.049,328.969,328.969,0,0,0,36.271,33.289,361.615,361.615,0,0,0,42.043,28.529,375.429,375.429,0,0,0,46.426,22.879,381.488,381.488,0,0,0,49.407,16.34,409.884,409.884,0,0,0,52.391,9.809,461.946,461.946,0,0,0,55.375,3.268c17.513,0,34.812-.807,51.414-2.4a472.693,472.693,0,0,0,48.638-7.186,422.549,422.549,0,0,0,45.861-11.982,392.311,392.311,0,0,0,43.084-16.768,379,379,0,0,0,77.837-47.916,404.258,404.258,0,0,0,34.754-31.145,442.831,442.831,0,0,0,31.979-35.939,474.274,474.274,0,0,0,28.679-40.08,500.3,500.3,0,0,0,24.856-43.566c7.61-15.031,14.687-30.863,21.03-47.059s12.136-33.2,17.208-50.551,9.577-35.533,13.385-54.041,7.02-37.861,9.559-57.531,4.468-40.207,5.735-61.021,1.911-42.527,1.911-64.514v-2.027c0-29.148-1.175-57.707-3.49-84.885-2.317-27.2-5.84-53.77-10.472-78.982a695.246,695.246,0,0,0-17.454-73.08c-3.48-11.656-7.3-23.205-11.345-34.328-4.058-11.156-8.462-22.209-13.09-32.852a545.191,545.191,0,0,0-30.843-60.574c-5.581-9.416-11.507-18.686-17.611-27.555-6.078-8.828-12.5-17.484-19.071-25.727s-13.48-16.279-20.53-23.9-14.455-15.057-21.991-22.074-15.432-13.844-23.451-20.256-16.387-12.605-24.91-18.43-17.337-11.342-26.209-16.42c-8.9-5.092-18.1-9.881-27.354-14.234-9.273-4.359-18.86-8.412-28.5-12.043s-19.6-6.941-29.638-9.852c-10.053-2.914-20.409-5.492-30.782-7.662-10.426-2.186-21.166-4.027-31.922-5.475-10.793-1.455-21.917-2.561-33.065-3.285s-22.651-1.094-34.206-1.094a492.656,492.656,0,0,0-56.548,3.172,420.468,420.468,0,0,0-52.866,9.518,374.636,374.636,0,0,0-49.186,15.871,353.039,353.039,0,0,0-86.568,50.074,329.052,329.052,0,0,0-66.51,70.568,355.534,355.534,0,0,0-25.451,42.713l-17.259,0v-173.641Zm-1214.062,0v1478.48l252.846,0v-545.293l17.265,0a332.86,332.86,0,0,0,24.718,42.8,319.3,319.3,0,0,0,30.494,38.049,328.788,328.788,0,0,0,36.27,33.289,361.7,361.7,0,0,0,42.043,28.529,375.429,375.429,0,0,0,46.426,22.879,381.928,381.928,0,0,0,49.41,16.34,409.98,409.98,0,0,0,52.391,9.809,461.921,461.921,0,0,0,55.372,3.268c17.513,0,34.811-.807,51.414-2.4a472.693,472.693,0,0,0,48.638-7.186,422.608,422.608,0,0,0,45.861-11.982,392.174,392.174,0,0,0,43.085-16.768,378.989,378.989,0,0,0,77.84-47.916,404.652,404.652,0,0,0,34.756-31.145,442.963,442.963,0,0,0,31.979-35.939,474.6,474.6,0,0,0,28.678-40.08,500.457,500.457,0,0,0,24.854-43.566c7.611-15.033,14.688-30.867,21.03-47.059s12.132-33.2,17.206-50.551,9.578-35.537,13.383-54.041,7.021-37.861,9.559-57.531,4.468-40.205,5.735-61.021,1.912-42.527,1.912-64.514v-2.027c0-29.145-1.174-57.7-3.49-84.885s-5.839-53.76-10.471-78.982a695.353,695.353,0,0,0-17.452-73.08c-3.478-11.646-7.294-23.2-11.343-34.328-4.057-11.152-8.46-22.205-13.089-32.852a545.71,545.71,0,0,0-30.847-60.574c-5.584-9.42-11.51-18.689-17.611-27.555-6.072-8.818-12.488-17.475-19.071-25.727s-13.488-16.287-20.531-23.9c-7.061-7.635-14.459-15.061-21.99-22.074s-15.43-13.842-23.449-20.256-16.389-12.607-24.908-18.43-17.336-11.342-26.211-16.42c-8.9-5.092-18.1-9.881-27.354-14.234-9.278-4.363-18.867-8.416-28.5-12.043s-19.605-6.943-29.638-9.852c-10.05-2.914-20.406-5.492-30.781-7.662-10.429-2.186-21.169-4.029-31.923-5.475-10.792-1.455-21.917-2.561-33.065-3.285s-22.653-1.094-34.208-1.094a492.643,492.643,0,0,0-56.548,3.172,420.453,420.453,0,0,0-52.865,9.518,374.65,374.65,0,0,0-49.187,15.871,352.949,352.949,0,0,0-86.565,50.074,328.96,328.96,0,0,0-66.511,70.568,355.1,355.1,0,0,0-25.447,42.713l-17.265,0v-173.641Zm3369.028-21.326c-13.047,0-26.072.377-38.715,1.119s-25.246,1.873-37.445,3.359-24.363,3.361-36.176,5.592c-11.764,2.221-23.508,4.855-34.906,7.832-11.369,2.967-22.686,6.355-33.637,10.066s-21.828,7.846-32.367,12.3-21,9.348-31.1,14.541-20.141,10.838-29.828,16.777-19.225,12.262-28.363,18.809c-9.121,6.533-18.1,13.475-26.691,20.633s-17.012,14.713-25.029,22.459-15.879,15.914-23.365,24.285-14.791,17.166-21.693,26.109-13.654,18.35-20.029,27.932c-6.367,9.563-12.547,19.574-18.367,29.754-5.809,10.164-11.428,20.789-16.7,31.582-5.258,10.773-10.264,21.941-14.875,33.193s-8.947,22.9-12.889,34.588-7.619,23.809-10.912,35.984c-3.3,12.207-6.3,24.785-8.922,37.383-2.631,12.625-4.969,25.672-6.945,38.775s-3.641,26.607-4.959,40.174c-2.631,27.133-3.967,55.574-3.967,84.535v1.02c0,29.295,1.336,58.014,3.967,85.359,1.318,13.676,2.988,27.283,4.959,40.441,1.977,13.178,4.313,26.283,6.945,38.953,2.625,12.652,5.627,25.256,8.922,37.459s6.969,24.309,10.912,35.969,8.279,23.271,12.889,34.477c4.609,11.189,9.613,22.287,14.875,32.984s10.895,21.23,16.732,31.32,12.047,20,18.461,29.479c6.4,9.463,13.191,18.764,20.186,27.643s14.369,17.551,21.924,25.8,15.5,16.3,23.646,23.959,16.684,15.094,25.377,22.117,17.822,13.85,27.111,20.275,18.986,12.629,28.838,18.439,20.1,11.34,30.428,16.422,21.059,9.869,31.891,14.232c10.811,4.354,22.031,8.4,33.35,12.043,11.289,3.627,23,6.941,34.811,9.852,11.779,2.9,23.984,5.484,36.271,7.666,12.324,2.184,25.016,4.025,37.729,5.471,12.777,1.455,25.963,2.561,39.189,3.285s26.9,1.094,40.648,1.094c24.93,0,49.188-1.033,72.1-3.074a643.608,643.608,0,0,0,66-9.234,514.932,514.932,0,0,0,59.912-15.391,423.457,423.457,0,0,0,53.818-21.545c16.854-8.178,33.008-16.965,48.012-26.119a476.892,476.892,0,0,0,42.49-29.1,409.5,409.5,0,0,0,36.969-32.082,365.183,365.183,0,0,0,31.441-35.059c9.516-12.125,18.324-24.4,26.184-36.494a417.967,417.967,0,0,0,21.166-36.365,349.62,349.62,0,0,0,16.15-36.238,302.06,302.06,0,0,0,11.143-36.111l3.047-9.139-240.664,0-3.047,7.1a121.282,121.282,0,0,1-11.707,19.42,180.4,180.4,0,0,1-16.848,19.674,271.122,271.122,0,0,1-21.992,19.932c-8.16,6.658-17.289,13.449-27.133,20.182a195.03,195.03,0,0,1-32.4,17.768,244.65,244.65,0,0,1-37.793,12.691,325.829,325.829,0,0,1-43.187,7.617,445.009,445.009,0,0,1-48.584,2.539c-10.686,0-21.252-.436-31.406-1.293s-20.16-2.166-29.74-3.879-19.037-3.895-28.074-6.469a260.911,260.911,0,0,1-26.41-9.051,246.247,246.247,0,0,1-24.742-11.635,240.856,240.856,0,0,1-23.076-14.223,243.722,243.722,0,0,1-21.412-16.812,255.744,255.744,0,0,1-37.508-41.125,263.906,263.906,0,0,1-15.465-23.809,282.279,282.279,0,0,1-13.158-25.887c-3.99-8.939-7.645-18.348-10.861-27.963-3.227-9.633-6.107-19.74-8.562-30.043-2.459-10.318-4.564-21.127-6.26-32.123s-3.025-22.508-3.959-34.2-1.49-23.9-1.66-36.279l775.8,0,0-83.266c0-27.775-1.3-55.076-3.873-81.143a701.6,701.6,0,0,0-11.613-75.873c-2.58-12.191-5.512-24.291-8.713-35.961-3.213-11.717-6.795-23.373-10.648-34.643-3.842-11.244-8.074-22.457-12.584-33.328-4.5-10.842-9.381-21.611-14.516-32.01s-10.631-20.662-16.312-30.471-11.723-19.467-17.961-28.709-12.828-18.3-19.607-26.945-13.924-17.113-21.26-25.187-15.053-15.965-22.91-23.426c-7.889-7.494-16.152-14.783-24.564-21.666-8.4-6.879-17.215-13.576-26.209-19.906s-18.365-12.428-27.857-18.141-19.375-11.162-29.355-16.187c-9.959-5.008-20.283-9.727-30.686-14.023s-21.162-8.283-32.02-11.867-22.072-6.852-33.35-9.711-22.947-5.406-34.684-7.557c-11.762-2.15-23.879-3.967-36.016-5.393-12.187-1.434-24.752-2.523-37.35-3.238S17294.84,20005.7,17281.779,20005.7Zm-930.754-408.205v1539.408l252.844,0,0-1539.4-252.843,0ZM12852.02,20758.146h542.249l122.87,378.76,274.166,0L13271.4,19671.631l-295.5,0L12456,21136.906l274.166,0,121.852-378.756v0h0Zm2802.82,183.793c-10.707,0-21.269-.5-31.392-1.5a281.186,281.186,0,0,1-29.694-4.5,253.275,253.275,0,0,1-28-7.5,235.426,235.426,0,0,1-26.3-10.5,228.654,228.654,0,0,1-24.6-13.494,232.958,232.958,0,0,1-22.9-16.49,248.872,248.872,0,0,1-21.205-19.492,274.041,274.041,0,0,1-19.509-22.494,294.44,294.44,0,0,1-17.492-25.107c-5.417-8.7-10.517-17.9-15.159-27.344s-8.956-19.389-12.827-29.582-7.4-20.891-10.5-31.818-5.844-22.4-8.162-34.057c-2.322-11.676-4.283-23.887-5.831-36.295s-2.725-25.377-3.5-38.531-1.166-26.865-1.166-40.77v-2.029c0-13.818.392-27.457,1.166-40.531s1.95-25.979,3.5-38.324,3.509-24.494,5.831-36.121,5.066-23.023,8.162-33.914,6.626-21.553,10.5-31.707,8.185-20.082,12.827-29.5,9.744-18.609,15.159-27.3a296.512,296.512,0,0,1,17.492-25.094,274.6,274.6,0,0,1,19.509-22.488,247.954,247.954,0,0,1,21.205-19.492,233.666,233.666,0,0,1,22.9-16.5,230.367,230.367,0,0,1,24.6-13.494,236.546,236.546,0,0,1,26.3-10.494,253.579,253.579,0,0,1,28-7.5,281.863,281.863,0,0,1,29.694-4.5c10.146-.994,20.708-1.5,31.392-1.5,10.769,0,21.4.506,31.614,1.5a284,284,0,0,1,29.853,4.5,253.975,253.975,0,0,1,28.092,7.5,235.615,235.615,0,0,1,26.329,10.494,226.784,226.784,0,0,1,47.378,29.99,243.321,243.321,0,0,1,21.047,19.492,268.574,268.574,0,0,1,19.286,22.488,295.971,295.971,0,0,1,17.254,25.107c5.341,8.7,10.372,17.9,14.952,27.348s8.841,19.4,12.653,29.582,7.3,20.891,10.353,31.82,5.761,22.383,8.052,34.057,4.224,23.875,5.752,36.295,2.687,25.375,3.451,38.531,1.149,26.873,1.149,40.768v2.027c0,13.8-.389,27.438-1.156,40.531s-1.939,25.975-3.476,38.326-3.484,24.5-5.791,36.119-5.033,23.029-8.106,33.914-6.581,21.555-10.425,31.709-8.125,20.072-12.739,29.5c-4.607,9.414-9.673,18.6-15.057,27.3a296.106,296.106,0,0,1-17.374,25.088,272.5,272.5,0,0,1-19.388,22.494,246.71,246.71,0,0,1-21.1,19.492,231.2,231.2,0,0,1-22.816,16.49,227.642,227.642,0,0,1-24.53,13.494,233.963,233.963,0,0,1-26.243,10.5,252.189,252.189,0,0,1-27.957,7.5,280.879,280.879,0,0,1-29.67,4.5C15676.106,20941.436,15665.547,20941.939,15654.84,20941.939Zm-1214.057,0c-10.706,0-21.269-.5-31.393-1.5a281.675,281.675,0,0,1-29.693-4.5,253.119,253.119,0,0,1-28-7.5,235.351,235.351,0,0,1-26.3-10.5,228.8,228.8,0,0,1-24.6-13.494,233.346,233.346,0,0,1-22.9-16.49,248.872,248.872,0,0,1-21.205-19.492,274.347,274.347,0,0,1-19.507-22.494,294.712,294.712,0,0,1-17.493-25.107c-5.415-8.7-10.517-17.895-15.161-27.344s-8.958-19.393-12.829-29.582-7.4-20.891-10.5-31.818-5.841-22.383-8.164-34.057-4.284-23.891-5.83-36.295-2.725-25.371-3.5-38.531-1.166-26.865-1.166-40.77v-2.029c0-13.818.393-27.457,1.166-40.531.775-13.09,1.952-25.982,3.5-38.324s3.507-24.49,5.83-36.121,5.071-23.039,8.164-33.914,6.626-21.553,10.5-31.707,8.185-20.08,12.829-29.5,9.748-18.615,15.161-27.3a296.7,296.7,0,0,1,17.493-25.094,274.579,274.579,0,0,1,19.507-22.488,247.954,247.954,0,0,1,21.205-19.492,233.732,233.732,0,0,1,22.9-16.5,230.516,230.516,0,0,1,24.6-13.494,236.47,236.47,0,0,1,26.3-10.494,253.365,253.365,0,0,1,28-7.5,281.767,281.767,0,0,1,29.693-4.5c10.147-.994,20.709-1.5,31.393-1.5,10.767,0,21.4.506,31.614,1.5a284,284,0,0,1,29.851,4.5,253.958,253.958,0,0,1,28.091,7.5,235.7,235.7,0,0,1,26.33,10.494,226.812,226.812,0,0,1,47.377,29.99,242.918,242.918,0,0,1,21.045,19.492,268.424,268.424,0,0,1,19.284,22.488,295.356,295.356,0,0,1,17.255,25.107c5.345,8.707,10.377,17.908,14.954,27.348s8.836,19.395,12.653,29.582,7.3,20.891,10.352,31.82,5.761,22.383,8.052,34.057,4.225,23.879,5.751,36.295,2.688,25.381,3.45,38.531,1.15,26.873,1.15,40.768v2.027c0,13.807-.391,27.441-1.158,40.531-.769,13.074-1.937,25.969-3.474,38.326s-3.485,24.5-5.791,36.119-5.033,23.029-8.107,33.914-6.581,21.555-10.424,31.709-8.125,20.072-12.74,29.5c-4.606,9.414-9.673,18.6-15.056,27.3a296.559,296.559,0,0,1-17.374,25.088,272.69,272.69,0,0,1-19.388,22.494,246.881,246.881,0,0,1-21.1,19.492,231.429,231.429,0,0,1-22.816,16.49,227.721,227.721,0,0,1-24.529,13.494,234.1,234.1,0,0,1-26.242,10.5,252.172,252.172,0,0,1-27.956,7.5,280.509,280.509,0,0,1-29.669,4.5C14462.048,20941.436,14451.49,20941.939,14440.783,20941.939Zm-1111.508-385.861v0h-411.249l196.992-612.309,17.265,0,196.994,612.309v0Zm4216.52-80.221,0,0v0h-527.012c1.178-10.941,2.684-21.717,4.475-32.033,1.787-10.3,3.912-20.426,6.313-30.1s5.146-19.145,8.156-28.162,6.371-17.84,10-26.227,7.6-16.553,11.836-24.293,8.83-15.256,13.674-22.355a251.574,251.574,0,0,1,15.518-20.418,243.114,243.114,0,0,1,17.357-18.486c6.074-5.816,12.395-11.342,18.787-16.422,6.418-5.1,13.08-9.885,19.8-14.229,6.74-4.361,13.744-8.412,20.818-12.043s14.414-6.945,21.832-9.855,15.1-5.482,22.846-7.664,15.791-4.021,23.863-5.471c8.092-1.455,16.461-2.561,24.877-3.287s17.127-1.092,25.895-1.092,17.48.354,25.861,1.053c8.406.7,16.746,1.766,24.785,3.164s16.016,3.176,23.705,5.277c7.666,2.094,15.277,4.578,22.625,7.385a235.142,235.142,0,0,1,21.547,9.5c6.959,3.494,13.844,7.4,20.469,11.6,6.607,4.2,13.129,8.814,19.385,13.719,6.236,4.885,12.4,10.211,18.313,15.824a219.1,219.1,0,0,1,16.867,17.973,232.049,232.049,0,0,1,15.057,20.141,254.3,254.3,0,0,1,13.248,22.318c4.1,7.77,7.945,16.008,11.436,24.488s6.738,17.457,9.635,26.664,5.521,18.9,7.818,28.836a499.23,499.23,0,0,1,10.223,64.2Z" transform="translate(-11320.001 -16760.502)" fill="#bbb" stroke="#bbb" stroke-width="1"/>
</svg>
